<?xml version="1.0" encoding="utf-8"?>
<!-- Generator: Adobe Illustrator 14.0.0, SVG Export Plug-In . SVG Version: 6.00 Build 43363)  -->
<!DOCTYPE svg PUBLIC "-//W3C//DTD SVG 1.1//EN" "http://www.w3.org/Graphics/SVG/1.1/DTD/svg11.dtd">
<svg version="1.1" id="Layer_1" xmlns="http://www.w3.org/2000/svg" xmlns:xlink="http://www.w3.org/1999/xlink" x="0px" y="0px"
	 width="757.417px" height="449.333px" viewBox="0 0 757.417 449.333" enable-background="new 0 0 757.417 449.333"
	 xml:space="preserve">
<g>
	<path fill="#046BAF" d="M219,399.333H15v-358h204v102.606h13V37.333c0-18.226-14.774-33-33-33H34c-18.226,0-33,14.774-33,33v377
		c0,18.226,14.774,33,33,33h165c18.226,0,33-14.774,33-33V328.43h-13V399.333z M131,431.333h-27c-5.523,0-10-4.478-10-10
		s4.477-10,10-10h27c5.523,0,10,4.478,10,10S136.523,431.333,131,431.333z"/>
	<path fill="#046BAF" d="M264.496,159.054H100.504c-4.697,0-8.504,3.807-8.504,8.504v1.992c0,4.697,3.807,8.504,8.504,8.504h163.992
		c4.697,0,8.504-3.807,8.504-8.504v-1.992C273,162.861,269.193,159.054,264.496,159.054z"/>
	<path fill="#046BAF" d="M264.496,204.054H100.504c-4.697,0-8.504,3.807-8.504,8.504v1.992c0,4.697,3.807,8.504,8.504,8.504h163.992
		c4.697,0,8.504-3.807,8.504-8.504v-1.992C273,207.861,269.193,204.054,264.496,204.054z"/>
	<path fill="#046BAF" d="M264.496,249.054H100.504c-4.697,0-8.504,3.807-8.504,8.504v1.992c0,4.697,3.807,8.504,8.504,8.504h163.992
		c4.697,0,8.504-3.807,8.504-8.504v-1.992C273,252.861,269.193,249.054,264.496,249.054z"/>
	<path fill="#046BAF" d="M264.496,294.054H100.504c-4.697,0-8.504,3.807-8.504,8.504v1.992c0,4.697,3.807,8.504,8.504,8.504h163.992
		c4.697,0,8.504-3.807,8.504-8.504v-1.992C273,297.861,269.193,294.054,264.496,294.054z"/>
</g>
<g>
	<path fill="#026BAF" d="M568.426,288.203c-11.855,11.854-27.613,18.384-44.379,18.384c-16.767,0-32.526-6.527-44.382-18.382
		l-183.749-183.75c-2.056,4.205-3.244,8.911-3.244,13.906v217.347c0,17.525,14.209,31.732,31.736,31.732h399.27
		c17.528,0,31.735-14.208,31.735-31.732V118.361c0-4.995-1.187-9.701-3.239-13.905L568.426,288.203z"/>
	<path fill="#026BAF" d="M524.047,274.315c7.8,0,15.605-2.977,21.559-8.93L724.331,86.66c-0.222-0.005-0.431-0.033-0.652-0.033
		h-399.27c-0.22,0-0.43,0.028-0.649,0.033l178.725,178.725C508.441,271.339,516.241,274.315,524.047,274.315z"/>
</g>
</svg>
